<svg width="637" height="159" viewBox="0 0 637 159" fill="none" xmlns="http://www.w3.org/2000/svg">
<circle cx="63.7686" cy="95.5043" r="59.0043" fill="#FFD900" stroke="#282828" stroke-width="9"/>
<mask id="path-2-inside-1_0_1" fill="white">
<path d="M63.4636 141.911C85.8896 141.911 104.069 123.731 104.069 101.305C104.069 101.203 104.066 101.102 104.065 101H22.861C22.8603 101.102 22.8571 101.203 22.8571 101.305C22.8571 123.731 41.0374 141.911 63.4636 141.911Z"/>
</mask>
<path d="M63.4636 141.911C85.8896 141.911 104.069 123.731 104.069 101.305C104.069 101.203 104.066 101.102 104.065 101H22.861C22.8603 101.102 22.8571 101.203 22.8571 101.305C22.8571 123.731 41.0374 141.911 63.4636 141.911Z" fill="#E82424"/>
<path d="M63.4636 141.911L63.4636 148.911H63.4636V141.911ZM104.069 101.305L111.069 101.305V101.305H104.069ZM104.065 101V94.0002H111.014L111.065 100.949L104.065 101ZM22.861 101L15.8612 100.949L15.9123 94.0002H22.861V101ZM22.8571 101.305L15.8571 101.305L15.8571 101.305L22.8571 101.305ZM63.4636 141.911L63.4635 134.911C82.0234 134.911 97.069 119.865 97.069 101.305H104.069H111.069C111.069 127.597 89.7558 148.911 63.4636 148.911L63.4636 141.911ZM104.069 101.305L97.069 101.305C97.069 101.32 97.0693 101.323 97.0684 101.274C97.0681 101.257 97.0674 101.22 97.0669 101.187C97.0664 101.151 97.0657 101.104 97.0653 101.052L104.065 101L111.065 100.949C111.065 100.947 111.065 100.951 111.065 100.966C111.065 100.984 111.066 100.997 111.066 101.031C111.067 101.084 111.069 101.188 111.069 101.305L104.069 101.305ZM104.065 101V108H22.861V101V94.0002H104.065V101ZM22.861 101L29.8608 101.052C29.8604 101.104 29.8598 101.151 29.8592 101.187C29.8587 101.22 29.858 101.257 29.8577 101.274C29.8569 101.323 29.8571 101.32 29.8571 101.305L22.8571 101.305L15.8571 101.305C15.8571 101.188 15.8589 101.084 15.8598 101.031C15.8604 100.997 15.8607 100.984 15.861 100.966C15.8612 100.951 15.8612 100.947 15.8612 100.949L22.861 101ZM22.8571 101.305H29.8571C29.8571 119.865 44.9034 134.911 63.4636 134.911V141.911V148.911C37.1714 148.911 15.8571 127.597 15.8571 101.305H22.8571Z" fill="#282828" mask="url(#path-2-inside-1_0_1)"/>
<rect x="31.8213" y="49.6383" width="26.134" height="47.2991" rx="13.067" fill="#E6E6E6" stroke="#282828" stroke-width="3"/>
<rect x="36.7668" y="57.5371" width="16.4508" height="31.5016" rx="8.22542" fill="#1080FF"/>
<rect x="38.2434" y="59.5059" width="14.1374" height="27.0717" rx="7.06872" fill="#282828"/>
<rect x="38.2434" y="59.5059" width="8.85983" height="16.7352" rx="4.42991" fill="#F2F2F2"/>
<rect x="69.7216" y="49.6383" width="26.134" height="47.2991" rx="13.067" fill="#E6E6E6" stroke="#282828" stroke-width="3"/>
<rect x="74.6671" y="57.5371" width="16.4508" height="31.5016" rx="8.22542" fill="#1080FF"/>
<rect x="75.6516" y="59.5059" width="14.1374" height="27.0717" rx="7.06872" fill="#282828"/>
<rect x="76.1438" y="59.5059" width="8.85983" height="16.7352" rx="4.42991" fill="#F2F2F2"/>
<mask id="path-12-outside-2_0_1" maskUnits="userSpaceOnUse" x="121" y="44" width="358" height="102" fill="black">
<rect fill="white" x="121" y="44" width="358" height="102"/>
<path d="M141.26 136.047C137.848 136.047 135.173 135.116 133.235 133.255C131.374 131.317 130.444 128.564 130.444 124.998V64.0529C130.444 60.4862 131.374 57.7723 133.235 55.9114C135.173 53.973 137.965 53.0037 141.609 53.0037H180.339C183.131 53.0037 185.224 53.7016 186.62 55.0973C188.015 56.493 188.713 58.5089 188.713 61.1452C188.713 63.859 188.015 65.9526 186.62 67.4258C185.224 68.8215 183.131 69.5193 180.339 69.5193H151.844V86.0349H177.78C180.494 86.0349 182.549 86.7327 183.945 88.1284C185.418 89.5241 186.155 91.54 186.155 94.1763C186.155 96.8902 185.418 98.9449 183.945 100.341C182.549 101.736 180.494 102.434 177.78 102.434H151.844V124.998C151.844 132.364 148.316 136.047 141.26 136.047ZM223.544 136.279C217.186 136.279 211.642 135.078 206.913 132.674C202.183 130.27 198.5 126.82 195.863 122.323C193.227 117.825 191.909 112.514 191.909 106.389C191.909 101.736 192.646 97.588 194.119 93.9437C195.592 90.2219 197.724 87.0816 200.516 84.5229C203.307 81.8866 206.641 79.9094 210.518 78.5912C214.395 77.1956 218.737 76.4977 223.544 76.4977C229.903 76.4977 235.447 77.6995 240.176 80.1032C244.906 82.5069 248.55 85.9573 251.109 90.4545C253.745 94.8742 255.064 100.186 255.064 106.389C255.064 110.963 254.327 115.112 252.854 118.833C251.381 122.555 249.248 125.734 246.457 128.371C243.743 130.929 240.409 132.906 236.454 134.302C232.578 135.62 228.274 136.279 223.544 136.279ZM223.544 121.043C225.638 121.043 227.499 120.539 229.127 119.531C230.755 118.446 231.996 116.856 232.849 114.763C233.779 112.592 234.245 109.8 234.245 106.389C234.245 101.194 233.237 97.4717 231.221 95.2231C229.205 92.897 226.646 91.7339 223.544 91.7339C221.451 91.7339 219.59 92.2379 217.962 93.2459C216.333 94.2539 215.054 95.8434 214.124 98.0145C213.193 100.108 212.728 102.899 212.728 106.389C212.728 111.506 213.736 115.228 215.752 117.554C217.768 119.88 220.365 121.043 223.544 121.043ZM275.134 136.047C271.722 136.047 269.086 135.155 267.225 133.372C265.442 131.588 264.55 128.991 264.55 125.579V87.0816C264.55 83.7475 265.403 81.1888 267.109 79.4054C268.892 77.622 271.412 76.7303 274.669 76.7303C277.925 76.7303 280.406 77.622 282.112 79.4054C283.818 81.1888 284.671 83.7475 284.671 87.0816V91.8502H283.508C284.283 87.1979 286.26 83.5149 289.439 80.8011C292.696 78.0872 296.728 76.6528 301.535 76.4977C303.784 76.4202 305.451 77.0017 306.537 78.2423C307.7 79.4054 308.32 81.6152 308.397 84.8718C308.397 87.6632 307.816 89.873 306.653 91.5013C305.49 93.1296 303.28 94.0988 300.023 94.4089L297.348 94.6416C293.239 95.0293 290.254 96.1923 288.393 98.1308C286.532 99.9917 285.601 102.783 285.601 106.505V125.579C285.601 128.991 284.71 131.588 282.926 133.372C281.143 135.155 278.545 136.047 275.134 136.047ZM325.447 136.047C322.191 136.047 319.671 135.155 317.887 133.372C316.104 131.588 315.212 128.991 315.212 125.579V87.0816C315.212 83.7475 316.065 81.1888 317.771 79.4054C319.554 77.622 322.074 76.7303 325.331 76.7303C328.588 76.7303 331.069 77.622 332.775 79.4054C334.48 81.1888 335.333 83.7475 335.333 87.0816V93.4785L334.054 87.7795C335.682 84.3678 338.086 81.654 341.265 79.638C344.522 77.5445 348.36 76.4977 352.779 76.4977C356.966 76.4977 360.533 77.5057 363.48 79.5217C366.504 81.5377 368.675 84.6004 369.993 88.7099H368.365C370.148 84.9106 372.823 81.9254 376.39 79.7543C379.956 77.5832 383.911 76.4977 388.253 76.4977C392.75 76.4977 396.433 77.3894 399.302 79.1728C402.171 80.8786 404.303 83.5924 405.699 87.3142C407.172 90.9585 407.909 95.572 407.909 101.155V125.579C407.909 128.991 406.978 131.588 405.117 133.372C403.334 135.155 400.775 136.047 397.441 136.047C394.185 136.047 391.665 135.155 389.881 133.372C388.098 131.588 387.206 128.991 387.206 125.579V101.736C387.206 98.4021 386.702 95.9985 385.694 94.5253C384.686 93.052 383.019 92.3154 380.693 92.3154C377.824 92.3154 375.614 93.3234 374.064 95.3394C372.59 97.3554 371.854 100.224 371.854 103.946V125.579C371.854 128.991 370.962 131.588 369.179 133.372C367.395 135.155 364.837 136.047 361.502 136.047C358.168 136.047 355.61 135.155 353.826 133.372C352.043 131.588 351.151 128.991 351.151 125.579V101.736C351.151 98.4021 350.647 95.9985 349.639 94.5253C348.631 93.052 346.964 92.3154 344.638 92.3154C341.847 92.3154 339.676 93.3234 338.125 95.3394C336.652 97.3554 335.915 100.224 335.915 103.946V125.579C335.915 132.558 332.426 136.047 325.447 136.047ZM442.724 136.279C439.313 136.279 435.824 136.008 432.257 135.465C428.768 135 425.589 134.108 422.72 132.79C420.781 132.015 419.386 130.968 418.533 129.65C417.757 128.332 417.37 126.936 417.37 125.463C417.447 123.99 417.874 122.671 418.649 121.508C419.502 120.268 420.587 119.415 421.906 118.95C423.301 118.407 424.852 118.446 426.558 119.066C429.814 120.229 432.722 121.082 435.281 121.625C437.917 122.09 440.437 122.323 442.841 122.323C445.71 122.323 447.764 121.935 449.005 121.159C450.246 120.307 450.866 119.221 450.866 117.903C450.866 116.74 450.439 115.848 449.587 115.228C448.811 114.608 447.687 114.181 446.214 113.948L433.304 111.855C428.496 111.002 424.774 109.257 422.138 106.621C419.502 103.907 418.184 100.379 418.184 96.0372C418.184 92.0053 419.308 88.5548 421.557 85.6859C423.883 82.7395 427.023 80.4909 430.977 78.9402C435.009 77.3119 439.623 76.4977 444.818 76.4977C448.307 76.4977 451.486 76.7691 454.355 77.3119C457.224 77.7771 460.015 78.6688 462.729 79.9869C464.435 80.6848 465.637 81.6927 466.335 83.0109C467.033 84.329 467.304 85.7247 467.149 87.1979C466.994 88.5936 466.49 89.9118 465.637 91.1524C464.862 92.3154 463.776 93.1296 462.38 93.5948C460.985 93.9825 459.356 93.8662 457.495 93.2459C454.937 92.2379 452.649 91.5013 450.633 91.0361C448.695 90.5708 446.873 90.3382 445.167 90.3382C441.988 90.3382 439.739 90.7647 438.421 91.6176C437.103 92.4705 436.444 93.556 436.444 94.8742C436.444 95.8822 436.793 96.7351 437.491 97.4329C438.189 98.0532 439.274 98.4797 440.747 98.7123L453.657 100.922C458.62 101.698 462.419 103.403 465.055 106.04C467.769 108.598 469.126 112.088 469.126 116.507C469.126 122.788 466.722 127.673 461.915 131.162C457.108 134.574 450.711 136.279 442.724 136.279Z"/>
</mask>
<path d="M141.26 136.047C137.848 136.047 135.173 135.116 133.235 133.255C131.374 131.317 130.444 128.564 130.444 124.998V64.0529C130.444 60.4862 131.374 57.7723 133.235 55.9114C135.173 53.973 137.965 53.0037 141.609 53.0037H180.339C183.131 53.0037 185.224 53.7016 186.62 55.0973C188.015 56.493 188.713 58.5089 188.713 61.1452C188.713 63.859 188.015 65.9526 186.62 67.4258C185.224 68.8215 183.131 69.5193 180.339 69.5193H151.844V86.0349H177.78C180.494 86.0349 182.549 86.7327 183.945 88.1284C185.418 89.5241 186.155 91.54 186.155 94.1763C186.155 96.8902 185.418 98.9449 183.945 100.341C182.549 101.736 180.494 102.434 177.78 102.434H151.844V124.998C151.844 132.364 148.316 136.047 141.26 136.047ZM223.544 136.279C217.186 136.279 211.642 135.078 206.913 132.674C202.183 130.27 198.5 126.82 195.863 122.323C193.227 117.825 191.909 112.514 191.909 106.389C191.909 101.736 192.646 97.588 194.119 93.9437C195.592 90.2219 197.724 87.0816 200.516 84.5229C203.307 81.8866 206.641 79.9094 210.518 78.5912C214.395 77.1956 218.737 76.4977 223.544 76.4977C229.903 76.4977 235.447 77.6995 240.176 80.1032C244.906 82.5069 248.55 85.9573 251.109 90.4545C253.745 94.8742 255.064 100.186 255.064 106.389C255.064 110.963 254.327 115.112 252.854 118.833C251.381 122.555 249.248 125.734 246.457 128.371C243.743 130.929 240.409 132.906 236.454 134.302C232.578 135.62 228.274 136.279 223.544 136.279ZM223.544 121.043C225.638 121.043 227.499 120.539 229.127 119.531C230.755 118.446 231.996 116.856 232.849 114.763C233.779 112.592 234.245 109.8 234.245 106.389C234.245 101.194 233.237 97.4717 231.221 95.2231C229.205 92.897 226.646 91.7339 223.544 91.7339C221.451 91.7339 219.59 92.2379 217.962 93.2459C216.333 94.2539 215.054 95.8434 214.124 98.0145C213.193 100.108 212.728 102.899 212.728 106.389C212.728 111.506 213.736 115.228 215.752 117.554C217.768 119.88 220.365 121.043 223.544 121.043ZM275.134 136.047C271.722 136.047 269.086 135.155 267.225 133.372C265.442 131.588 264.55 128.991 264.55 125.579V87.0816C264.55 83.7475 265.403 81.1888 267.109 79.4054C268.892 77.622 271.412 76.7303 274.669 76.7303C277.925 76.7303 280.406 77.622 282.112 79.4054C283.818 81.1888 284.671 83.7475 284.671 87.0816V91.8502H283.508C284.283 87.1979 286.26 83.5149 289.439 80.8011C292.696 78.0872 296.728 76.6528 301.535 76.4977C303.784 76.4202 305.451 77.0017 306.537 78.2423C307.7 79.4054 308.32 81.6152 308.397 84.8718C308.397 87.6632 307.816 89.873 306.653 91.5013C305.49 93.1296 303.28 94.0988 300.023 94.4089L297.348 94.6416C293.239 95.0293 290.254 96.1923 288.393 98.1308C286.532 99.9917 285.601 102.783 285.601 106.505V125.579C285.601 128.991 284.71 131.588 282.926 133.372C281.143 135.155 278.545 136.047 275.134 136.047ZM325.447 136.047C322.191 136.047 319.671 135.155 317.887 133.372C316.104 131.588 315.212 128.991 315.212 125.579V87.0816C315.212 83.7475 316.065 81.1888 317.771 79.4054C319.554 77.622 322.074 76.7303 325.331 76.7303C328.588 76.7303 331.069 77.622 332.775 79.4054C334.48 81.1888 335.333 83.7475 335.333 87.0816V93.4785L334.054 87.7795C335.682 84.3678 338.086 81.654 341.265 79.638C344.522 77.5445 348.36 76.4977 352.779 76.4977C356.966 76.4977 360.533 77.5057 363.48 79.5217C366.504 81.5377 368.675 84.6004 369.993 88.7099H368.365C370.148 84.9106 372.823 81.9254 376.39 79.7543C379.956 77.5832 383.911 76.4977 388.253 76.4977C392.75 76.4977 396.433 77.3894 399.302 79.1728C402.171 80.8786 404.303 83.5924 405.699 87.3142C407.172 90.9585 407.909 95.572 407.909 101.155V125.579C407.909 128.991 406.978 131.588 405.117 133.372C403.334 135.155 400.775 136.047 397.441 136.047C394.185 136.047 391.665 135.155 389.881 133.372C388.098 131.588 387.206 128.991 387.206 125.579V101.736C387.206 98.4021 386.702 95.9985 385.694 94.5253C384.686 93.052 383.019 92.3154 380.693 92.3154C377.824 92.3154 375.614 93.3234 374.064 95.3394C372.59 97.3554 371.854 100.224 371.854 103.946V125.579C371.854 128.991 370.962 131.588 369.179 133.372C367.395 135.155 364.837 136.047 361.502 136.047C358.168 136.047 355.61 135.155 353.826 133.372C352.043 131.588 351.151 128.991 351.151 125.579V101.736C351.151 98.4021 350.647 95.9985 349.639 94.5253C348.631 93.052 346.964 92.3154 344.638 92.3154C341.847 92.3154 339.676 93.3234 338.125 95.3394C336.652 97.3554 335.915 100.224 335.915 103.946V125.579C335.915 132.558 332.426 136.047 325.447 136.047ZM442.724 136.279C439.313 136.279 435.824 136.008 432.257 135.465C428.768 135 425.589 134.108 422.72 132.79C420.781 132.015 419.386 130.968 418.533 129.65C417.757 128.332 417.37 126.936 417.37 125.463C417.447 123.99 417.874 122.671 418.649 121.508C419.502 120.268 420.587 119.415 421.906 118.95C423.301 118.407 424.852 118.446 426.558 119.066C429.814 120.229 432.722 121.082 435.281 121.625C437.917 122.09 440.437 122.323 442.841 122.323C445.71 122.323 447.764 121.935 449.005 121.159C450.246 120.307 450.866 119.221 450.866 117.903C450.866 116.74 450.439 115.848 449.587 115.228C448.811 114.608 447.687 114.181 446.214 113.948L433.304 111.855C428.496 111.002 424.774 109.257 422.138 106.621C419.502 103.907 418.184 100.379 418.184 96.0372C418.184 92.0053 419.308 88.5548 421.557 85.6859C423.883 82.7395 427.023 80.4909 430.977 78.9402C435.009 77.3119 439.623 76.4977 444.818 76.4977C448.307 76.4977 451.486 76.7691 454.355 77.3119C457.224 77.7771 460.015 78.6688 462.729 79.9869C464.435 80.6848 465.637 81.6927 466.335 83.0109C467.033 84.329 467.304 85.7247 467.149 87.1979C466.994 88.5936 466.49 89.9118 465.637 91.1524C464.862 92.3154 463.776 93.1296 462.38 93.5948C460.985 93.9825 459.356 93.8662 457.495 93.2459C454.937 92.2379 452.649 91.5013 450.633 91.0361C448.695 90.5708 446.873 90.3382 445.167 90.3382C441.988 90.3382 439.739 90.7647 438.421 91.6176C437.103 92.4705 436.444 93.556 436.444 94.8742C436.444 95.8822 436.793 96.7351 437.491 97.4329C438.189 98.0532 439.274 98.4797 440.747 98.7123L453.657 100.922C458.62 101.698 462.419 103.403 465.055 106.04C467.769 108.598 469.126 112.088 469.126 116.507C469.126 122.788 466.722 127.673 461.915 131.162C457.108 134.574 450.711 136.279 442.724 136.279Z" fill="white"/>
<path d="M133.235 133.255L126.743 139.488L126.87 139.621L127.002 139.748L133.235 133.255ZM133.235 55.9114L139.599 62.2754L139.599 62.2754L133.235 55.9114ZM186.62 55.0973L192.984 48.7333L192.984 48.7333L186.62 55.0973ZM186.62 67.4258L192.984 73.7897L193.07 73.7038L193.153 73.6155L186.62 67.4258ZM151.844 69.5193V60.5193H142.844V69.5193H151.844ZM151.844 86.0349H142.844V95.0349H151.844V86.0349ZM183.945 88.1284L177.581 94.4923L177.667 94.5783L177.755 94.662L183.945 88.1284ZM183.945 100.341L177.755 93.807L177.667 93.8906L177.581 93.9766L183.945 100.341ZM151.844 102.434V93.4341H142.844V102.434H151.844ZM141.26 136.047V127.047C140.361 127.047 139.867 126.923 139.652 126.848C139.547 126.812 139.498 126.784 139.486 126.776C139.475 126.77 139.472 126.767 139.468 126.763L133.235 133.255L127.002 139.748C131.036 143.62 136.179 145.047 141.26 145.047V136.047ZM133.235 133.255L139.727 127.023C139.786 127.083 139.744 127.082 139.668 126.855C139.578 126.591 139.444 126.016 139.444 124.998H130.444H121.444C121.444 130.106 122.802 135.384 126.743 139.488L133.235 133.255ZM130.444 124.998H139.444V64.0529H130.444H121.444V124.998H130.444ZM130.444 64.0529H139.444C139.444 63.0309 139.579 62.4822 139.655 62.2614C139.716 62.0827 139.723 62.1512 139.599 62.2754L133.235 55.9114L126.871 49.5475C122.793 53.6258 121.444 58.9702 121.444 64.0529H130.444ZM133.235 55.9114L139.599 62.2754C139.533 62.3408 139.521 62.3068 139.734 62.2327C139.989 62.1444 140.566 62.0037 141.609 62.0037V53.0037V44.0037C136.391 44.0037 130.996 45.4221 126.871 49.5475L133.235 55.9114ZM141.609 53.0037V62.0037H180.339V53.0037V44.0037H141.609V53.0037ZM180.339 53.0037V62.0037C180.666 62.0037 180.891 62.0244 181.029 62.0441C181.167 62.0638 181.202 62.0802 181.157 62.0653C181.109 62.0494 180.984 62.0021 180.812 61.8988C180.636 61.7936 180.443 61.6485 180.256 61.4612L186.62 55.0973L192.984 48.7333C189.305 45.0545 184.518 44.0037 180.339 44.0037V53.0037ZM186.62 55.0973L180.256 61.4612C180.099 61.3041 179.967 61.1342 179.865 60.9675C179.764 60.8029 179.71 60.6719 179.685 60.6C179.639 60.4679 179.713 60.602 179.713 61.1452H188.713H197.713C197.713 56.9492 196.574 52.3234 192.984 48.7333L186.62 55.0973ZM188.713 61.1452H179.713C179.713 61.7485 179.634 61.9585 179.652 61.9047C179.663 61.8723 179.697 61.7791 179.774 61.6488C179.852 61.5164 179.956 61.3734 180.086 61.2361L186.62 67.4258L193.153 73.6155C196.606 69.971 197.713 65.3668 197.713 61.1452H188.713ZM186.62 67.4258L180.256 61.0618C180.443 60.8746 180.636 60.7295 180.812 60.6243C180.984 60.521 181.109 60.4736 181.157 60.4578C181.202 60.4429 181.167 60.4592 181.029 60.4789C180.891 60.4987 180.666 60.5193 180.339 60.5193V69.5193V78.5193C184.518 78.5193 189.305 77.4685 192.984 73.7897L186.62 67.4258ZM180.339 69.5193V60.5193H151.844V69.5193V78.5193H180.339V69.5193ZM151.844 69.5193H142.844V86.0349H151.844H160.844V69.5193H151.844ZM151.844 86.0349V95.0349H177.78V86.0349V77.0349H151.844V86.0349ZM177.78 86.0349V95.0349C178.389 95.0349 178.567 95.1157 178.463 95.0802C178.403 95.0599 178.274 95.0092 178.106 94.9069C177.935 94.803 177.753 94.6646 177.581 94.4923L183.945 88.1284L190.309 81.7644C186.673 78.1289 181.967 77.0349 177.78 77.0349V86.0349ZM183.945 88.1284L177.755 94.662C177.604 94.5192 177.469 94.356 177.358 94.1843C177.248 94.0142 177.183 93.8697 177.149 93.7759C177.083 93.5974 177.155 93.6796 177.155 94.1763H186.155H195.155C195.155 89.8459 193.897 85.1594 190.134 81.5948L183.945 88.1284ZM186.155 94.1763H177.155C177.155 94.74 177.076 94.8671 177.13 94.7156C177.159 94.6335 177.221 94.491 177.333 94.3164C177.446 94.1395 177.589 93.9644 177.755 93.807L183.945 100.341L190.134 106.874C193.947 103.262 195.155 98.4939 195.155 94.1763H186.155ZM183.945 100.341L177.581 93.9766C177.753 93.8044 177.935 93.6659 178.106 93.5621C178.274 93.4598 178.403 93.4091 178.463 93.3888C178.567 93.3532 178.389 93.4341 177.78 93.4341V102.434V111.434C181.967 111.434 186.673 110.34 190.309 106.705L183.945 100.341ZM177.78 102.434V93.4341H151.844V102.434V111.434H177.78V102.434ZM151.844 102.434H142.844V124.998H151.844H160.844V102.434H151.844ZM151.844 124.998H142.844C142.844 127.388 142.266 127.511 142.699 127.059C142.895 126.854 143.047 126.816 142.933 126.856C142.771 126.912 142.267 127.047 141.26 127.047V136.047V145.047C146.276 145.047 151.667 143.718 155.697 139.51C159.658 135.375 160.844 129.973 160.844 124.998H151.844ZM206.913 132.674L210.99 124.65L206.913 132.674ZM195.863 122.323L188.099 126.874L188.099 126.874L195.863 122.323ZM194.119 93.9437L202.463 97.3168L202.475 97.2865L202.487 97.2562L194.119 93.9437ZM200.516 84.5229L206.597 91.1573L206.647 91.112L206.695 91.066L200.516 84.5229ZM210.518 78.5912L213.415 87.1122L213.491 87.0864L213.567 87.0592L210.518 78.5912ZM240.176 80.1032L244.254 72.0799L244.254 72.0799L240.176 80.1032ZM251.109 90.4545L243.287 94.9052L243.332 94.9856L243.38 95.065L251.109 90.4545ZM252.854 118.833L244.485 115.521L244.485 115.521L252.854 118.833ZM246.457 128.371L252.631 134.919L252.636 134.914L246.457 128.371ZM236.454 134.302L239.352 142.823L239.401 142.806L239.45 142.789L236.454 134.302ZM229.127 119.531L233.864 127.184L233.993 127.104L234.119 127.02L229.127 119.531ZM232.849 114.763L224.577 111.217L224.545 111.292L224.514 111.367L232.849 114.763ZM231.221 95.2231L224.419 101.117L224.469 101.175L224.52 101.231L231.221 95.2231ZM217.962 93.2459L213.225 85.5935L213.225 85.5935L217.962 93.2459ZM214.124 98.0145L222.348 101.67L222.372 101.615L222.396 101.56L214.124 98.0145ZM215.752 117.554L208.951 123.448L215.752 117.554ZM223.544 136.279V127.279C218.325 127.279 214.23 126.297 210.99 124.65L206.913 132.674L202.835 140.697C209.055 143.858 216.048 145.279 223.544 145.279V136.279ZM206.913 132.674L210.99 124.65C207.767 123.013 205.376 120.754 203.628 117.771L195.863 122.323L188.099 126.874C191.623 132.885 196.598 137.528 202.835 140.697L206.913 132.674ZM195.863 122.323L203.628 117.771C201.932 114.879 200.909 111.197 200.909 106.389H191.909H182.909C182.909 113.831 184.522 120.772 188.099 126.874L195.863 122.323ZM191.909 106.389H200.909C200.909 102.684 201.495 99.7118 202.463 97.3168L194.119 93.9437L185.775 90.5706C183.797 95.4642 182.909 100.788 182.909 106.389H191.909ZM194.119 93.9437L202.487 97.2562C203.488 94.7263 204.867 92.7436 206.597 91.1573L200.516 84.5229L194.434 77.8885C190.582 81.4196 187.696 85.7175 185.751 90.6313L194.119 93.9437ZM200.516 84.5229L206.695 91.066C208.486 89.3752 210.679 88.0425 213.415 87.1122L210.518 78.5912L207.621 70.0703C202.603 71.7762 198.129 74.398 194.336 77.9798L200.516 84.5229ZM210.518 78.5912L213.567 87.0592C216.318 86.0688 219.607 85.4977 223.544 85.4977V76.4977V67.4977C217.868 67.4977 212.472 68.3223 207.47 70.1232L210.518 78.5912ZM223.544 76.4977V85.4977C228.764 85.4977 232.859 86.4803 236.099 88.1266L240.176 80.1032L244.254 72.0799C238.034 68.9188 231.041 67.4977 223.544 67.4977V76.4977ZM240.176 80.1032L236.099 88.1266C239.3 89.7533 241.623 91.9807 243.287 94.9052L251.109 90.4545L258.932 86.0038C255.478 79.934 250.512 75.2605 244.254 72.0799L240.176 80.1032ZM251.109 90.4545L243.38 95.065C245.029 97.8291 246.064 101.475 246.064 106.389H255.064H264.064C264.064 98.8964 262.462 91.9193 258.839 85.844L251.109 90.4545ZM255.064 106.389H246.064C246.064 109.99 245.486 112.993 244.485 115.521L252.854 118.833L261.222 122.146C263.168 117.23 264.064 111.937 264.064 106.389H255.064ZM252.854 118.833L244.485 115.521C243.476 118.072 242.071 120.134 240.277 121.827L246.457 128.371L252.636 134.914C256.426 131.335 259.285 127.038 261.222 122.146L252.854 118.833ZM246.457 128.371L240.283 121.822C238.589 123.419 236.378 124.785 233.459 125.815L236.454 134.302L239.45 142.789C244.44 141.028 248.897 138.439 252.631 134.919L246.457 128.371ZM236.454 134.302L233.557 125.781C230.746 126.737 227.439 127.279 223.544 127.279V136.279V145.279C229.11 145.279 234.41 144.503 239.352 142.823L236.454 134.302ZM223.544 121.043V130.043C227.15 130.043 230.682 129.154 233.864 127.184L229.127 119.531L224.39 111.879C224.316 111.925 224.126 112.043 223.544 112.043V121.043ZM229.127 119.531L234.119 127.02C237.469 124.787 239.76 121.654 241.184 118.158L232.849 114.763L224.514 111.367C224.363 111.738 224.237 111.92 224.184 111.987C224.157 112.022 224.141 112.037 224.138 112.04C224.135 112.043 224.135 112.042 224.135 112.043L229.127 119.531ZM232.849 114.763L241.121 118.308C242.695 114.635 243.245 110.521 243.245 106.389H234.245H225.245C225.245 109.08 224.863 110.548 224.577 111.217L232.849 114.763ZM234.245 106.389H243.245C243.245 100.442 242.168 93.9518 237.922 89.2152L231.221 95.2231L224.52 101.231C224.366 101.06 224.566 101.185 224.802 102.054C225.04 102.935 225.245 104.33 225.245 106.389H234.245ZM231.221 95.2231L238.022 89.3287C234.282 85.013 229.233 82.7339 223.544 82.7339V91.7339V100.734C223.756 100.734 223.888 100.753 223.957 100.768C224.024 100.782 224.055 100.795 224.065 100.799C224.076 100.804 224.102 100.817 224.149 100.853C224.198 100.89 224.291 100.969 224.419 101.117L231.221 95.2231ZM223.544 91.7339V82.7339C219.939 82.7339 216.407 83.6233 213.225 85.5935L217.962 93.2459L222.699 100.898C222.773 100.853 222.963 100.734 223.544 100.734V91.7339ZM217.962 93.2459L213.225 85.5935C209.69 87.7818 207.338 90.9998 205.851 94.4692L214.124 98.0145L222.396 101.56C222.588 101.112 222.74 100.902 222.792 100.837C222.835 100.784 222.806 100.832 222.699 100.898L217.962 93.2459ZM214.124 98.0145L205.899 94.3592C204.261 98.0451 203.728 102.235 203.728 106.389H212.728H221.728C221.728 103.564 222.125 102.171 222.348 101.67L214.124 98.0145ZM212.728 106.389H203.728C203.728 112.341 204.838 118.702 208.951 123.448L215.752 117.554L222.553 111.66C222.627 111.745 222.408 111.54 222.171 110.665C221.93 109.775 221.728 108.395 221.728 106.389H212.728ZM215.752 117.554L208.951 123.448C212.739 127.82 217.853 130.043 223.544 130.043V121.043V112.043C223.074 112.043 222.903 111.963 222.89 111.957C222.884 111.954 222.773 111.913 222.553 111.66L215.752 117.554ZM267.225 133.372L260.861 139.736L260.929 139.803L260.998 139.87L267.225 133.372ZM267.109 79.4054L260.745 73.0414L260.674 73.1121L260.605 73.1844L267.109 79.4054ZM282.112 79.4054L275.608 85.6264L275.608 85.6264L282.112 79.4054ZM284.671 91.8502V100.85H293.671V91.8502H284.671ZM283.508 91.8502L274.63 90.3706L272.884 100.85H283.508V91.8502ZM289.439 80.8011L283.678 73.8871L283.637 73.9213L283.596 73.956L289.439 80.8011ZM301.535 76.4977L301.826 85.493L301.836 85.4927L301.846 85.4924L301.535 76.4977ZM306.537 78.2423L299.763 84.1689L299.961 84.3944L300.173 84.6063L306.537 78.2423ZM308.397 84.8718H317.397V84.7647L317.395 84.6576L308.397 84.8718ZM306.653 91.5013L313.976 96.7324L313.976 96.7324L306.653 91.5013ZM300.023 94.4089L300.803 103.375L300.84 103.372L300.877 103.368L300.023 94.4089ZM297.348 94.6416L296.569 85.6754L296.536 85.6783L296.503 85.6813L297.348 94.6416ZM288.393 98.1308L294.757 104.495L294.822 104.43L294.885 104.364L288.393 98.1308ZM282.926 133.372L276.562 127.008L282.926 133.372ZM275.134 136.047V127.047C274.195 127.047 273.688 126.922 273.481 126.852C273.312 126.795 273.356 126.782 273.452 126.874L267.225 133.372L260.998 139.87C265.02 143.724 270.174 145.047 275.134 145.047V136.047ZM267.225 133.372L273.589 127.008C273.75 127.169 273.772 127.284 273.731 127.164C273.675 127.002 273.55 126.522 273.55 125.579H264.55H255.55C255.55 130.512 256.863 135.738 260.861 139.736L267.225 133.372ZM264.55 125.579H273.55V87.0816H264.55H255.55V125.579H264.55ZM264.55 87.0816H273.55C273.55 86.1626 273.67 85.6825 273.728 85.508C273.773 85.3713 273.761 85.4706 273.612 85.6264L267.109 79.4054L260.605 73.1844C256.802 77.1597 255.55 82.2607 255.55 87.0816H264.55ZM267.109 79.4054L273.473 85.7693C273.359 85.8826 273.265 85.9094 273.338 85.8836C273.45 85.8442 273.847 85.7303 274.669 85.7303V76.7303V67.7303C269.751 67.7303 264.668 69.118 260.745 73.0414L267.109 79.4054ZM274.669 76.7303V85.7303C275.494 85.7303 275.863 85.8454 275.928 85.8688C275.955 85.8785 275.918 85.8677 275.842 85.8193C275.764 85.7697 275.682 85.703 275.608 85.6264L282.112 79.4054L288.616 73.1844C284.719 69.1099 279.562 67.7303 274.669 67.7303V76.7303ZM282.112 79.4054L275.608 85.6264C275.459 85.4706 275.447 85.3713 275.493 85.508C275.551 85.6825 275.671 86.1626 275.671 87.0816H284.671H293.671C293.671 82.2607 292.418 77.1597 288.616 73.1844L282.112 79.4054ZM284.671 87.0816H275.671V91.8502H284.671H293.671V87.0816H284.671ZM284.671 91.8502V82.8502H283.508V91.8502V100.85H284.671V91.8502ZM283.508 91.8502L292.385 93.3298C292.86 90.4822 293.922 88.8076 295.283 87.6461L289.439 80.8011L283.596 73.956C278.599 78.2222 275.706 83.9137 274.63 90.3706L283.508 91.8502ZM289.439 80.8011L295.201 87.7151C296.712 86.456 298.739 85.5926 301.826 85.493L301.535 76.4977L301.245 67.5024C294.717 67.713 288.68 69.7185 283.678 73.8871L289.439 80.8011ZM301.535 76.4977L301.846 85.4924C302.149 85.4819 301.97 85.5348 301.508 85.3735C300.979 85.1889 300.319 84.8039 299.763 84.1689L306.537 78.2423L313.31 72.3158C309.854 68.3664 305.132 67.3684 301.225 67.5031L301.535 76.4977ZM306.537 78.2423L300.173 84.6063C299.736 84.1694 299.482 83.7666 299.351 83.5177C299.222 83.2744 299.193 83.1471 299.209 83.2043C299.224 83.2589 299.268 83.4352 299.31 83.7653C299.352 84.0923 299.387 84.5274 299.4 85.086L308.397 84.8718L317.395 84.6576C317.309 81.0524 316.697 75.6748 312.901 71.8783L306.537 78.2423ZM308.397 84.8718H299.397C299.397 86.5072 299.047 86.6648 299.329 86.2701L306.653 91.5013L313.976 96.7324C316.585 93.0811 317.397 88.8191 317.397 84.8718H308.397ZM306.653 91.5013L299.329 86.2701C299.584 85.913 299.858 85.6489 300.093 85.4684C300.32 85.2932 300.48 85.2198 300.508 85.2073C300.534 85.1961 300.45 85.2353 300.219 85.2896C299.988 85.3436 299.645 85.4042 299.17 85.4495L300.023 94.4089L300.877 103.368C305.122 102.964 310.562 101.513 313.976 96.7324L306.653 91.5013ZM300.023 94.4089L299.244 85.4428L296.569 85.6754L297.348 94.6416L298.128 103.608L300.803 103.375L300.023 94.4089ZM297.348 94.6416L296.503 85.6813C291.349 86.1676 285.877 87.7557 281.9 91.898L288.393 98.1308L294.885 104.364C294.752 104.502 294.79 104.387 295.295 104.191C295.824 103.984 296.743 103.739 298.194 103.602L297.348 94.6416ZM288.393 98.1308L282.029 91.7668C277.885 95.9108 276.601 101.396 276.601 106.505H285.601H294.601C294.601 105.367 294.747 104.738 294.837 104.466C294.913 104.238 294.926 104.326 294.757 104.495L288.393 98.1308ZM285.601 106.505H276.601V125.579H285.601H294.601V106.505H285.601ZM285.601 125.579H276.601C276.601 126.522 276.476 127.002 276.42 127.164C276.379 127.284 276.401 127.169 276.562 127.008L282.926 133.372L289.29 139.736C293.288 135.738 294.601 130.512 294.601 125.579H285.601ZM282.926 133.372L276.562 127.008C276.723 126.847 276.839 126.824 276.718 126.866C276.556 126.921 276.076 127.047 275.134 127.047V136.047V145.047C280.067 145.047 285.292 143.733 289.29 139.736L282.926 133.372ZM317.887 133.372L324.251 127.008L324.251 127.008L317.887 133.372ZM317.771 79.4054L311.407 73.0414L311.336 73.1121L311.267 73.1844L317.771 79.4054ZM332.775 79.4054L326.271 85.6264L326.271 85.6264L332.775 79.4054ZM335.333 93.4785L326.552 95.4498L344.333 93.4785H335.333ZM334.054 87.7795L325.932 83.9029L324.591 86.7128L325.273 89.7508L334.054 87.7795ZM341.265 79.638L346.085 87.2386L346.108 87.2237L346.132 87.2086L341.265 79.638ZM363.48 79.5217L358.397 86.9495L358.442 86.9801L358.487 87.0101L363.48 79.5217ZM369.993 88.7099V97.7099H382.331L378.563 85.9611L369.993 88.7099ZM368.365 88.7099L360.217 84.8858L354.198 97.7099H368.365V88.7099ZM376.39 79.7543L371.71 72.0665L376.39 79.7543ZM399.302 79.1728L394.551 86.8163L394.626 86.8632L394.702 86.9086L399.302 79.1728ZM405.699 87.3142L397.272 90.4743L397.312 90.5814L397.355 90.6873L405.699 87.3142ZM405.117 133.372L398.89 126.874L398.821 126.94L398.753 127.008L405.117 133.372ZM389.881 133.372L396.245 127.008L389.881 133.372ZM374.064 95.3394L366.93 89.852L366.862 89.9398L366.797 90.0293L374.064 95.3394ZM369.179 133.372L362.815 127.008L362.815 127.008L369.179 133.372ZM353.826 133.372L360.19 127.008L360.19 127.008L353.826 133.372ZM349.639 94.5253L357.067 89.4431L357.067 89.4431L349.639 94.5253ZM338.125 95.3394L330.991 89.852L330.924 89.9398L330.858 90.0293L338.125 95.3394ZM325.447 136.047V127.047C324.626 127.047 324.229 126.933 324.117 126.893C324.044 126.868 324.138 126.894 324.251 127.008L317.887 133.372L311.523 139.736C315.447 143.659 320.53 145.047 325.447 145.047V136.047ZM317.887 133.372L324.251 127.008C324.412 127.169 324.435 127.284 324.393 127.164C324.338 127.002 324.212 126.522 324.212 125.579H315.212H306.212C306.212 130.512 307.526 135.738 311.523 139.736L317.887 133.372ZM315.212 125.579H324.212V87.0816H315.212H306.212V125.579H315.212ZM315.212 87.0816H324.212C324.212 86.1626 324.332 85.6825 324.39 85.508C324.436 85.3713 324.424 85.4706 324.275 85.6264L317.771 79.4054L311.267 73.1844C307.465 77.1597 306.212 82.2607 306.212 87.0816H315.212ZM317.771 79.4054L324.135 85.7693C324.022 85.8826 323.928 85.9094 324.001 85.8836C324.112 85.8442 324.51 85.7303 325.331 85.7303V76.7303V67.7303C320.414 67.7303 315.331 69.118 311.407 73.0414L317.771 79.4054ZM325.331 76.7303V85.7303C326.157 85.7303 326.525 85.8454 326.591 85.8688C326.618 85.8785 326.58 85.8677 326.504 85.8193C326.427 85.7697 326.344 85.703 326.271 85.6264L332.775 79.4054L339.278 73.1844C335.381 69.1099 330.224 67.7303 325.331 67.7303V76.7303ZM332.775 79.4054L326.271 85.6264C326.122 85.4706 326.11 85.3713 326.156 85.508C326.214 85.6825 326.333 86.1626 326.333 87.0816H335.333H344.333C344.333 82.2607 343.081 77.1597 339.278 73.1844L332.775 79.4054ZM335.333 87.0816H326.333V93.4785H335.333H344.333V87.0816H335.333ZM335.333 93.4785L344.115 91.5071L342.835 85.8081L334.054 87.7795L325.273 89.7508L326.552 95.4498L335.333 93.4785ZM334.054 87.7795L342.176 91.656C343.079 89.7646 344.341 88.3443 346.085 87.2386L341.265 79.638L336.445 72.0374C331.831 74.9637 328.286 78.971 325.932 83.9029L334.054 87.7795ZM341.265 79.638L346.132 87.2086C347.739 86.1753 349.835 85.4977 352.779 85.4977V76.4977V67.4977C346.885 67.4977 341.304 68.9137 336.398 72.0674L341.265 79.638ZM352.779 76.4977V85.4977C355.474 85.4977 357.193 86.1252 358.397 86.9495L363.48 79.5217L368.562 72.0939C363.874 68.8862 358.459 67.4977 352.779 67.4977V76.4977ZM363.48 79.5217L358.487 87.0101C359.514 87.6945 360.605 88.9105 361.423 91.4588L369.993 88.7099L378.563 85.9611C376.744 80.2903 373.493 75.3809 368.472 72.0332L363.48 79.5217ZM369.993 88.7099V79.7099H368.365V88.7099V97.7099H369.993V88.7099ZM368.365 88.7099L376.512 92.5341C377.548 90.3265 379.021 88.6888 381.069 87.4421L376.39 79.7543L371.71 72.0665C366.625 75.1619 362.748 79.4947 360.217 84.8858L368.365 88.7099ZM376.39 79.7543L381.069 87.4421C383.168 86.1645 385.492 85.4977 388.253 85.4977V76.4977V67.4977C382.329 67.4977 376.745 69.002 371.71 72.0665L376.39 79.7543ZM388.253 76.4977V85.4977C391.613 85.4977 393.507 86.1676 394.551 86.8163L399.302 79.1728L404.054 71.5292C399.359 68.6111 393.888 67.4977 388.253 67.4977V76.4977ZM399.302 79.1728L394.702 86.9086C395.493 87.3784 396.452 88.2883 397.272 90.4743L405.699 87.3142L414.126 84.1541C412.154 78.8965 408.849 74.3788 403.902 71.4369L399.302 79.1728ZM405.699 87.3142L397.355 90.6873C398.254 92.9105 398.909 96.2797 398.909 101.155H407.909H416.909C416.909 94.8644 416.091 89.0065 414.043 83.9411L405.699 87.3142ZM407.909 101.155H398.909V125.579H407.909H416.909V101.155H407.909ZM407.909 125.579H398.909C398.909 126.486 398.783 126.926 398.738 127.051C398.718 127.108 398.715 127.097 398.748 127.045C398.783 126.991 398.832 126.929 398.89 126.874L405.117 133.372L411.345 139.87C415.497 135.89 416.909 130.616 416.909 125.579H407.909ZM405.117 133.372L398.753 127.008C398.891 126.87 398.995 126.846 398.899 126.879C398.763 126.927 398.324 127.047 397.441 127.047V136.047V145.047C402.366 145.047 407.52 143.697 411.481 139.736L405.117 133.372ZM397.441 136.047V127.047C396.62 127.047 396.222 126.933 396.111 126.893C396.038 126.868 396.132 126.894 396.245 127.008L389.881 133.372L383.517 139.736C387.441 143.659 392.524 145.047 397.441 145.047V136.047ZM389.881 133.372L396.245 127.008C396.406 127.169 396.429 127.284 396.387 127.164C396.332 127.002 396.206 126.522 396.206 125.579H387.206H378.206C378.206 130.512 379.519 135.738 383.517 139.736L389.881 133.372ZM387.206 125.579H396.206V101.736H387.206H378.206V125.579H387.206ZM387.206 101.736H396.206C396.206 97.9359 395.715 93.2336 393.122 89.4431L385.694 94.5253L378.266 99.6074C377.901 99.0739 377.925 98.8296 378.02 99.2799C378.108 99.7027 378.206 100.486 378.206 101.736H387.206ZM385.694 94.5253L393.122 89.4431C389.941 84.7936 384.989 83.3154 380.693 83.3154V92.3154V101.315C380.937 101.315 380.633 101.357 380.05 101.1C379.386 100.806 378.729 100.283 378.266 99.6074L385.694 94.5253ZM380.693 92.3154V83.3154C375.438 83.3154 370.418 85.3169 366.93 89.852L374.064 95.3394L381.197 100.827C381.173 100.858 381.106 100.937 380.99 101.03C380.873 101.125 380.743 101.203 380.619 101.26C380.358 101.379 380.317 101.315 380.693 101.315V92.3154ZM374.064 95.3394L366.797 90.0293C363.766 94.1763 362.854 99.2049 362.854 103.946H371.854H380.854C380.854 101.244 381.414 100.534 381.33 100.65L374.064 95.3394ZM371.854 103.946H362.854V125.579H371.854H380.854V103.946H371.854ZM371.854 125.579H362.854C362.854 126.522 362.728 127.002 362.673 127.164C362.631 127.284 362.654 127.169 362.815 127.008L369.179 133.372L375.543 139.736C379.54 135.738 380.854 130.512 380.854 125.579H371.854ZM369.179 133.372L362.815 127.008C362.952 126.87 363.056 126.846 362.96 126.879C362.824 126.927 362.385 127.047 361.502 127.047V136.047V145.047C366.427 145.047 371.581 143.697 375.543 139.736L369.179 133.372ZM361.502 136.047V127.047C360.62 127.047 360.181 126.927 360.044 126.879C359.948 126.846 360.053 126.87 360.19 127.008L353.826 133.372L347.462 139.736C351.424 143.697 356.578 145.047 361.502 145.047V136.047ZM353.826 133.372L360.19 127.008C360.351 127.169 360.373 127.284 360.332 127.164C360.277 127.002 360.151 126.522 360.151 125.579H351.151H342.151C342.151 130.512 343.464 135.738 347.462 139.736L353.826 133.372ZM351.151 125.579H360.151V101.736H351.151H342.151V125.579H351.151ZM351.151 101.736H360.151C360.151 97.9359 359.66 93.2336 357.067 89.4431L349.639 94.5253L342.211 99.6074C341.846 99.0739 341.87 98.8296 341.965 99.2799C342.053 99.7027 342.151 100.486 342.151 101.736H351.151ZM349.639 94.5253L357.067 89.4431C353.886 84.7936 348.934 83.3154 344.638 83.3154V92.3154V101.315C344.881 101.315 344.578 101.357 343.995 101.1C343.331 100.806 342.674 100.283 342.211 99.6074L349.639 94.5253ZM344.638 92.3154V83.3154C339.365 83.3154 334.428 85.3843 330.991 89.852L338.125 95.3394L345.258 100.827C345.246 100.843 345.189 100.913 345.079 101.001C344.968 101.092 344.839 101.173 344.706 101.235C344.423 101.366 344.335 101.315 344.638 101.315V92.3154ZM338.125 95.3394L330.858 90.0293C327.828 94.1763 326.915 99.2049 326.915 103.946H335.915H344.915C344.915 101.244 345.475 100.534 345.391 100.65L338.125 95.3394ZM335.915 103.946H326.915V125.579H335.915H344.915V103.946H335.915ZM335.915 125.579H326.915C326.915 126.601 326.784 127.128 326.723 127.313C326.676 127.454 326.707 127.293 326.934 127.066C327.161 126.839 327.322 126.807 327.181 126.854C326.996 126.916 326.469 127.047 325.447 127.047V136.047V145.047C330.324 145.047 335.634 143.822 339.662 139.794C343.69 135.766 344.915 130.456 344.915 125.579H335.915ZM432.257 135.465L433.611 126.568L433.529 126.555L433.446 126.544L432.257 135.465ZM422.72 132.79L426.477 124.612L426.272 124.518L426.062 124.434L422.72 132.79ZM418.533 129.65L410.775 134.213L410.872 134.378L410.977 134.539L418.533 129.65ZM417.37 125.463L408.382 124.99L408.37 125.226V125.463H417.37ZM418.649 121.508L411.233 116.41L411.196 116.463L411.161 116.516L418.649 121.508ZM421.906 118.95L424.901 127.437L425.035 127.389L425.168 127.338L421.906 118.95ZM426.558 119.066L423.482 127.524L423.506 127.533L423.531 127.542L426.558 119.066ZM435.281 121.625L433.413 130.429L433.565 130.461L433.717 130.488L435.281 121.625ZM449.005 121.159L453.775 128.791L453.942 128.687L454.104 128.576L449.005 121.159ZM449.587 115.228L443.964 122.256L444.126 122.385L444.293 122.506L449.587 115.228ZM446.214 113.948L444.773 122.832L444.792 122.835L444.81 122.838L446.214 113.948ZM433.304 111.855L431.731 120.717L431.797 120.728L431.863 120.739L433.304 111.855ZM422.138 106.621L415.683 112.892L415.728 112.939L415.774 112.985L422.138 106.621ZM421.557 85.6859L414.493 80.1091L414.483 80.1216L414.473 80.134L421.557 85.6859ZM430.977 78.9402L434.263 87.3189L434.306 87.3023L434.348 87.2853L430.977 78.9402ZM454.355 77.3119L452.682 86.155L452.798 86.1769L452.915 86.1958L454.355 77.3119ZM462.729 79.9869L458.797 88.0825L459.056 88.208L459.322 88.3168L462.729 79.9869ZM466.335 83.0109L474.289 78.7999L474.289 78.7999L466.335 83.0109ZM467.149 87.1979L476.094 88.1918L476.097 88.166L476.099 88.1401L467.149 87.1979ZM465.637 91.1524L458.221 86.0536L458.184 86.1066L458.148 86.1601L465.637 91.1524ZM462.38 93.5948L464.789 102.266L465.009 102.205L465.226 102.133L462.38 93.5948ZM457.495 93.2459L454.197 101.62L454.421 101.708L454.649 101.784L457.495 93.2459ZM450.633 91.0361L448.533 99.7875L448.571 99.7967L448.61 99.8056L450.633 91.0361ZM438.421 91.6176L433.532 84.0614L433.532 84.0615L438.421 91.6176ZM437.491 97.4329L431.127 103.797L431.314 103.984L431.511 104.16L437.491 97.4329ZM440.747 98.7123L442.266 89.8413L442.208 89.8315L442.151 89.8224L440.747 98.7123ZM453.657 100.922L452.139 109.793L452.203 109.804L452.268 109.814L453.657 100.922ZM465.055 106.04L458.691 112.404L458.785 112.497L458.881 112.588L465.055 106.04ZM461.915 131.162L467.124 138.501L467.163 138.474L467.202 138.446L461.915 131.162ZM442.724 136.279V127.279C439.791 127.279 436.755 127.046 433.611 126.568L432.257 135.465L430.903 144.363C434.892 144.97 438.834 145.279 442.724 145.279V136.279ZM432.257 135.465L433.446 126.544C430.745 126.184 428.444 125.516 426.477 124.612L422.72 132.79L418.962 140.968C422.733 142.701 426.791 143.816 431.067 144.386L432.257 135.465ZM422.72 132.79L426.062 124.434C425.688 124.284 425.575 124.191 425.619 124.224C425.644 124.242 425.709 124.294 425.796 124.386C425.885 124.479 425.987 124.604 426.089 124.761L418.533 129.65L410.977 134.539C413.127 137.863 416.272 139.905 419.377 141.146L422.72 132.79ZM418.533 129.65L426.29 125.087C426.277 125.065 426.305 125.108 426.332 125.206C426.36 125.306 426.37 125.399 426.37 125.463H417.37H408.37C408.37 128.603 409.219 131.567 410.775 134.213L418.533 129.65ZM417.37 125.463L426.357 125.936C426.357 125.93 426.353 126.008 426.311 126.14C426.267 126.274 426.204 126.401 426.137 126.501L418.649 121.508L411.161 116.516C409.438 119.099 408.54 121.996 408.382 124.99L417.37 125.463ZM418.649 121.508L426.065 126.607C426.023 126.669 425.897 126.831 425.663 127.015C425.424 127.203 425.156 127.346 424.901 127.437L421.906 118.95L418.91 110.463C415.656 111.611 413.076 113.728 411.233 116.41L418.649 121.508ZM421.906 118.95L425.168 127.338C424.715 127.514 424.263 127.578 423.89 127.569C423.543 127.56 423.392 127.491 423.482 127.524L426.558 119.066L429.634 110.608C426.332 109.407 422.484 109.068 418.644 110.562L421.906 118.95ZM426.558 119.066L423.531 127.542C427.053 128.8 430.359 129.781 433.413 130.429L435.281 121.625L437.148 112.821C435.085 112.383 432.575 111.658 429.585 110.59L426.558 119.066ZM435.281 121.625L433.717 130.488C436.812 131.034 439.858 131.323 442.841 131.323V122.323V113.323C441.017 113.323 439.022 113.146 436.845 112.762L435.281 121.625ZM442.841 122.323V131.323C446.052 131.323 450.282 130.975 453.775 128.791L449.005 121.159L444.235 113.528C444.579 113.313 444.833 113.214 444.927 113.181C445.021 113.148 445.013 113.16 444.865 113.188C444.548 113.248 443.906 113.323 442.841 113.323V122.323ZM449.005 121.159L454.104 128.576C457.384 126.321 459.866 122.642 459.866 117.903H450.866H441.866C441.866 117.084 442.077 116.132 442.587 115.24C443.071 114.392 443.636 113.929 443.906 113.743L449.005 121.159ZM450.866 117.903H459.866C459.866 114.204 458.326 110.455 454.88 107.949L449.587 115.228L444.293 122.506C443.594 121.998 442.902 121.238 442.427 120.245C441.967 119.282 441.866 118.43 441.866 117.903H450.866ZM449.587 115.228L455.209 108.2C452.75 106.233 449.918 105.422 447.617 105.059L446.214 113.948L444.81 122.838C445.075 122.88 445.104 122.909 444.97 122.858C444.833 122.806 444.445 122.64 443.964 122.256L449.587 115.228ZM446.214 113.948L447.654 105.065L434.744 102.971L433.304 111.855L431.863 120.739L444.773 122.832L446.214 113.948ZM433.304 111.855L434.876 102.993C431.327 102.364 429.485 101.24 428.502 100.257L422.138 106.621L415.774 112.985C420.064 117.275 425.666 119.64 431.731 120.717L433.304 111.855ZM422.138 106.621L428.594 100.35C427.832 99.5661 427.184 98.4111 427.184 96.0372H418.184H409.184C409.184 102.348 411.172 108.249 415.683 112.892L422.138 106.621ZM418.184 96.0372H427.184C427.184 93.7918 427.766 92.3531 428.64 91.2379L421.557 85.6859L414.473 80.134C410.85 84.7566 409.184 90.2187 409.184 96.0372H418.184ZM421.557 85.6859L428.621 91.2627C429.833 89.7266 431.595 88.3653 434.263 87.3189L430.977 78.9402L427.692 70.5614C422.451 72.6166 417.932 75.7524 414.493 80.1091L421.557 85.6859ZM430.977 78.9402L434.348 87.2853C437.122 86.1649 440.558 85.4977 444.818 85.4977V76.4977V67.4977C438.688 67.4977 432.897 68.4588 427.607 70.595L430.977 78.9402ZM444.818 76.4977V85.4977C447.851 85.4977 450.459 85.7344 452.682 86.155L454.355 77.3119L456.028 68.4687C452.513 67.8038 448.764 67.4977 444.818 67.4977V76.4977ZM454.355 77.3119L452.915 86.1958C454.886 86.5156 456.841 87.1323 458.797 88.0825L462.729 79.9869L466.661 71.8913C463.19 70.2052 459.562 69.0386 455.796 68.4279L454.355 77.3119ZM462.729 79.9869L459.322 88.3168C459.46 88.3734 459.351 88.3501 459.126 88.162C458.884 87.9587 458.603 87.642 458.381 87.2219L466.335 83.0109L474.289 78.7999C472.389 75.2105 469.319 72.9587 466.137 71.657L462.729 79.9869ZM466.335 83.0109L458.381 87.2219C458.335 87.1363 458.269 86.9779 458.227 86.7641C458.185 86.5498 458.186 86.3693 458.198 86.2558L467.149 87.1979L476.099 88.1401C476.443 84.8754 475.817 81.6871 474.289 78.7999L466.335 83.0109ZM467.149 87.1979L458.204 86.204C458.207 86.1746 458.213 86.1411 458.221 86.1062C458.23 86.0712 458.239 86.0416 458.248 86.0191C458.267 85.9702 458.27 85.9811 458.221 86.0536L465.637 91.1524L473.053 96.2511C474.684 93.8795 475.763 91.1663 476.094 88.1918L467.149 87.1979ZM465.637 91.1524L458.148 86.1601C458.309 85.9186 458.543 85.6588 458.841 85.4353C459.135 85.2151 459.392 85.1042 459.534 85.0567L462.38 93.5948L465.226 102.133C468.414 101.07 471.179 99.0644 473.125 96.1447L465.637 91.1524ZM462.38 93.5948L459.972 84.9231C460.383 84.8089 460.67 84.8152 460.754 84.8212C460.823 84.8261 460.697 84.8261 460.341 84.7077L457.495 93.2459L454.649 101.784C457.622 102.775 461.154 103.276 464.789 102.266L462.38 93.5948ZM457.495 93.2459L460.794 84.8722C457.947 83.7505 455.222 82.8584 452.657 82.2665L450.633 91.0361L448.61 99.8056C450.077 100.144 451.927 100.725 454.197 101.62L457.495 93.2459ZM450.633 91.0361L452.734 82.2846C450.22 81.6812 447.687 81.3382 445.167 81.3382V90.3382V99.3382C446.058 99.3382 447.17 99.4605 448.533 99.7875L450.633 91.0361ZM445.167 90.3382V81.3382C441.709 81.3382 437.176 81.7037 433.532 84.0614L438.421 91.6176L443.31 99.1737C442.956 99.4033 442.698 99.5023 442.623 99.5294C442.545 99.5572 442.582 99.5367 442.773 99.5004C443.178 99.4236 443.941 99.3382 445.167 99.3382V90.3382ZM438.421 91.6176L433.532 84.0615C430.218 86.2058 427.444 89.8839 427.444 94.8742H436.444H445.444C445.444 95.7968 445.19 96.822 444.631 97.7422C444.109 98.6019 443.528 99.0329 443.31 99.1737L438.421 91.6176ZM436.444 94.8742H427.444C427.444 98.2119 428.701 101.371 431.127 103.797L437.491 97.4329L443.855 91.069C444.29 91.5045 444.726 92.1057 445.036 92.8622C445.343 93.6148 445.444 94.3197 445.444 94.8742H436.444ZM437.491 97.4329L431.511 104.16C434.052 106.418 437.096 107.247 439.344 107.602L440.747 98.7123L442.151 89.8224C441.891 89.7814 441.912 89.76 442.119 89.8412C442.327 89.9227 442.857 90.1616 443.47 90.7062L437.491 97.4329ZM440.747 98.7123L439.229 107.583L452.139 109.793L453.657 100.922L455.176 92.0511L442.266 89.8413L440.747 98.7123ZM453.657 100.922L452.268 109.814C455.991 110.396 457.802 111.514 458.691 112.404L465.055 106.04L471.419 99.6757C467.036 95.2927 461.248 92.999 455.047 92.03L453.657 100.922ZM465.055 106.04L458.881 112.588C459.459 113.133 460.126 114.069 460.126 116.507H469.126H478.126C478.126 110.106 476.079 104.064 471.229 99.4913L465.055 106.04ZM469.126 116.507H460.126C460.126 120.099 458.95 122.193 456.629 123.878L461.915 131.162L467.202 138.446C474.494 133.152 478.126 125.476 478.126 116.507H469.126ZM461.915 131.162L456.706 123.822C453.877 125.83 449.494 127.279 442.724 127.279V136.279V145.279C451.928 145.279 460.339 143.317 467.124 138.501L461.915 131.162Z" fill="#2B2B2B" mask="url(#path-12-outside-2_0_1)"/>
<mask id="path-14-outside-3_0_1" maskUnits="userSpaceOnUse" x="472" y="43" width="165" height="102" fill="black">
<rect fill="white" x="472" y="43" width="165" height="102"/>
<path d="M497.587 135.93C492.392 135.93 488.36 134.302 485.492 131.046C482.7 127.789 481.305 123.175 481.305 117.205V55.9114C481.305 54.6708 481.615 53.7791 482.235 53.2364C482.855 52.6161 483.747 52.3059 484.91 52.3059C485.996 52.3059 486.848 52.6161 487.469 53.2364C488.089 53.7791 488.399 54.6708 488.399 55.9114V116.391C488.399 120.888 489.291 124.261 491.074 126.51C492.858 128.681 495.455 129.766 498.867 129.766C499.642 129.766 500.301 129.727 500.844 129.65C501.387 129.572 501.93 129.534 502.472 129.534C503.17 129.456 503.674 129.611 503.984 129.999C504.372 130.309 504.566 131.007 504.566 132.092C504.566 133.178 504.295 133.992 503.752 134.535C503.209 135.078 502.317 135.465 501.077 135.698C500.534 135.775 499.952 135.814 499.332 135.814C498.789 135.892 498.208 135.93 497.587 135.93ZM531.916 135.93C528.117 135.93 524.705 135.194 521.681 133.721C518.735 132.247 516.37 130.231 514.586 127.673C512.881 125.114 512.028 122.245 512.028 119.066C512.028 114.879 513.074 111.584 515.168 109.18C517.261 106.776 520.789 105.109 525.752 104.179C530.714 103.171 537.538 102.667 546.222 102.667H551.223V107.901H546.338C539.36 107.901 533.893 108.211 529.939 108.831C526.062 109.374 523.348 110.421 521.797 111.971C520.247 113.522 519.471 115.693 519.471 118.484C519.471 121.974 520.673 124.804 523.077 126.975C525.481 129.146 528.737 130.231 532.847 130.231C536.181 130.231 539.088 129.456 541.57 127.905C544.128 126.277 546.144 124.067 547.618 121.276C549.091 118.484 549.827 115.305 549.827 111.739V98.4797C549.827 93.2847 548.781 89.5241 546.687 87.1979C544.594 84.7943 541.259 83.5924 536.685 83.5924C533.738 83.5924 530.869 83.9801 528.078 84.7555C525.364 85.5309 522.457 86.7715 519.355 88.4773C518.502 88.9425 517.727 89.0976 517.029 88.9425C516.409 88.7875 515.905 88.4773 515.517 88.0121C515.207 87.5469 514.974 87.0041 514.819 86.3838C514.742 85.6859 514.858 85.0269 515.168 84.4066C515.478 83.7863 516.021 83.2823 516.796 82.8946C520.053 81.1112 523.348 79.7931 526.682 78.9402C530.094 78.0097 533.389 77.5445 536.568 77.5445C541.143 77.5445 544.904 78.3198 547.85 79.8706C550.874 81.4214 553.084 83.7475 554.48 86.849C555.953 89.9505 556.689 93.9437 556.689 98.8286V132.092C556.689 133.255 556.418 134.147 555.875 134.767C555.333 135.388 554.518 135.698 553.433 135.698C552.347 135.698 551.494 135.388 550.874 134.767C550.254 134.147 549.944 133.255 549.944 132.092V121.392H551.107C550.409 124.416 549.168 127.014 547.385 129.185C545.602 131.356 543.392 133.023 540.755 134.186C538.119 135.349 535.173 135.93 531.916 135.93ZM602.103 135.93C596.83 135.93 592.333 134.574 588.611 131.86C584.889 129.146 582.369 125.502 581.051 120.927L582.331 120.229V132.092C582.331 133.255 582.02 134.147 581.4 134.767C580.78 135.388 579.927 135.698 578.841 135.698C577.678 135.698 576.787 135.388 576.166 134.767C575.546 134.147 575.236 133.255 575.236 132.092V55.9114C575.236 54.6708 575.546 53.7791 576.166 53.2364C576.787 52.6161 577.678 52.3059 578.841 52.3059C579.927 52.3059 580.78 52.6161 581.4 53.2364C582.02 53.7791 582.331 54.6708 582.331 55.9114V92.548H581.051C582.369 87.9733 584.889 84.329 588.611 81.6152C592.333 78.9014 596.83 77.5445 602.103 77.5445C607.22 77.5445 611.64 78.7463 615.362 81.15C619.083 83.5537 621.952 86.9265 623.968 91.2687C626.062 95.6108 627.109 100.767 627.109 106.737C627.109 112.708 626.062 117.903 623.968 122.323C621.952 126.665 619.045 130.038 615.245 132.441C611.524 134.767 607.143 135.93 602.103 135.93ZM601.056 129.999C604.855 129.999 608.151 129.107 610.942 127.324C613.811 125.463 616.021 122.788 617.572 119.299C619.122 115.809 619.898 111.622 619.898 106.737C619.898 99.3714 618.192 93.6723 614.78 89.6404C611.368 85.6084 606.794 83.5924 601.056 83.5924C597.257 83.5924 593.922 84.5229 591.054 86.3838C588.262 88.1672 586.091 90.8034 584.54 94.2926C582.99 97.7043 582.214 101.853 582.214 106.737C582.214 114.181 583.92 119.919 587.332 123.951C590.743 127.983 595.318 129.999 601.056 129.999Z"/>
</mask>
<path d="M497.587 135.93C492.392 135.93 488.36 134.302 485.492 131.046C482.7 127.789 481.305 123.175 481.305 117.205V55.9114C481.305 54.6708 481.615 53.7791 482.235 53.2364C482.855 52.6161 483.747 52.3059 484.91 52.3059C485.996 52.3059 486.848 52.6161 487.469 53.2364C488.089 53.7791 488.399 54.6708 488.399 55.9114V116.391C488.399 120.888 489.291 124.261 491.074 126.51C492.858 128.681 495.455 129.766 498.867 129.766C499.642 129.766 500.301 129.727 500.844 129.65C501.387 129.572 501.93 129.534 502.472 129.534C503.17 129.456 503.674 129.611 503.984 129.999C504.372 130.309 504.566 131.007 504.566 132.092C504.566 133.178 504.295 133.992 503.752 134.535C503.209 135.078 502.317 135.465 501.077 135.698C500.534 135.775 499.952 135.814 499.332 135.814C498.789 135.892 498.208 135.93 497.587 135.93ZM531.916 135.93C528.117 135.93 524.705 135.194 521.681 133.721C518.735 132.247 516.37 130.231 514.586 127.673C512.881 125.114 512.028 122.245 512.028 119.066C512.028 114.879 513.074 111.584 515.168 109.18C517.261 106.776 520.789 105.109 525.752 104.179C530.714 103.171 537.538 102.667 546.222 102.667H551.223V107.901H546.338C539.36 107.901 533.893 108.211 529.939 108.831C526.062 109.374 523.348 110.421 521.797 111.971C520.247 113.522 519.471 115.693 519.471 118.484C519.471 121.974 520.673 124.804 523.077 126.975C525.481 129.146 528.737 130.231 532.847 130.231C536.181 130.231 539.088 129.456 541.57 127.905C544.128 126.277 546.144 124.067 547.618 121.276C549.091 118.484 549.827 115.305 549.827 111.739V98.4797C549.827 93.2847 548.781 89.5241 546.687 87.1979C544.594 84.7943 541.259 83.5924 536.685 83.5924C533.738 83.5924 530.869 83.9801 528.078 84.7555C525.364 85.5309 522.457 86.7715 519.355 88.4773C518.502 88.9425 517.727 89.0976 517.029 88.9425C516.409 88.7875 515.905 88.4773 515.517 88.0121C515.207 87.5469 514.974 87.0041 514.819 86.3838C514.742 85.6859 514.858 85.0269 515.168 84.4066C515.478 83.7863 516.021 83.2823 516.796 82.8946C520.053 81.1112 523.348 79.7931 526.682 78.9402C530.094 78.0097 533.389 77.5445 536.568 77.5445C541.143 77.5445 544.904 78.3198 547.85 79.8706C550.874 81.4214 553.084 83.7475 554.48 86.849C555.953 89.9505 556.689 93.9437 556.689 98.8286V132.092C556.689 133.255 556.418 134.147 555.875 134.767C555.333 135.388 554.518 135.698 553.433 135.698C552.347 135.698 551.494 135.388 550.874 134.767C550.254 134.147 549.944 133.255 549.944 132.092V121.392H551.107C550.409 124.416 549.168 127.014 547.385 129.185C545.602 131.356 543.392 133.023 540.755 134.186C538.119 135.349 535.173 135.93 531.916 135.93ZM602.103 135.93C596.83 135.93 592.333 134.574 588.611 131.86C584.889 129.146 582.369 125.502 581.051 120.927L582.331 120.229V132.092C582.331 133.255 582.02 134.147 581.4 134.767C580.78 135.388 579.927 135.698 578.841 135.698C577.678 135.698 576.787 135.388 576.166 134.767C575.546 134.147 575.236 133.255 575.236 132.092V55.9114C575.236 54.6708 575.546 53.7791 576.166 53.2364C576.787 52.6161 577.678 52.3059 578.841 52.3059C579.927 52.3059 580.78 52.6161 581.4 53.2364C582.02 53.7791 582.331 54.6708 582.331 55.9114V92.548H581.051C582.369 87.9733 584.889 84.329 588.611 81.6152C592.333 78.9014 596.83 77.5445 602.103 77.5445C607.22 77.5445 611.64 78.7463 615.362 81.15C619.083 83.5537 621.952 86.9265 623.968 91.2687C626.062 95.6108 627.109 100.767 627.109 106.737C627.109 112.708 626.062 117.903 623.968 122.323C621.952 126.665 619.045 130.038 615.245 132.441C611.524 134.767 607.143 135.93 602.103 135.93ZM601.056 129.999C604.855 129.999 608.151 129.107 610.942 127.324C613.811 125.463 616.021 122.788 617.572 119.299C619.122 115.809 619.898 111.622 619.898 106.737C619.898 99.3714 618.192 93.6723 614.78 89.6404C611.368 85.6084 606.794 83.5924 601.056 83.5924C597.257 83.5924 593.922 84.5229 591.054 86.3838C588.262 88.1672 586.091 90.8034 584.54 94.2926C582.99 97.7043 582.214 101.853 582.214 106.737C582.214 114.181 583.92 119.919 587.332 123.951C590.743 127.983 595.318 129.999 601.056 129.999Z" fill="#166AC9"/>
<path d="M485.492 131.046L478.658 136.903L478.698 136.949L478.738 136.995L485.492 131.046ZM482.235 53.2364L488.162 60.0096L488.387 59.8122L488.599 59.6003L482.235 53.2364ZM487.469 53.2364L481.105 59.6003L481.317 59.8122L481.542 60.0096L487.469 53.2364ZM491.074 126.51L484.023 132.102L484.071 132.163L484.12 132.222L491.074 126.51ZM500.844 129.65L499.571 120.74L499.571 120.74L500.844 129.65ZM502.472 129.534V138.534H502.971L503.466 138.479L502.472 129.534ZM503.984 129.999L496.957 135.621L497.581 136.402L498.362 137.027L503.984 129.999ZM503.752 134.535L510.116 140.899L510.116 140.899L503.752 134.535ZM501.077 135.698L502.349 144.607L502.543 144.58L502.735 144.544L501.077 135.698ZM499.332 135.814V126.814H498.692L498.059 126.905L499.332 135.814ZM497.587 135.93V126.93C494.42 126.93 493.069 126.031 492.245 125.096L485.492 131.046L478.738 136.995C483.652 142.573 490.365 144.93 497.587 144.93V135.93ZM485.492 131.046L492.325 125.188C491.394 124.103 490.305 121.865 490.305 117.205H481.305H472.305C472.305 124.486 474.006 131.475 478.658 136.903L485.492 131.046ZM481.305 117.205H490.305V55.9114H481.305H472.305V117.205H481.305ZM481.305 55.9114H490.305C490.305 55.9445 490.307 58.1322 488.162 60.0096L482.235 53.2364L476.308 46.4632C472.922 49.4261 472.305 53.3971 472.305 55.9114H481.305ZM482.235 53.2364L488.599 59.6003C487.037 61.1627 485.329 61.3059 484.91 61.3059V52.3059V43.3059C482.165 43.3059 478.674 44.0695 475.871 46.8724L482.235 53.2364ZM484.91 52.3059V61.3059C484.604 61.3059 484.02 61.2626 483.288 60.9967C482.523 60.7183 481.757 60.2526 481.105 59.6003L487.469 53.2364L493.833 46.8724C491.143 44.1823 487.782 43.3059 484.91 43.3059V52.3059ZM487.469 53.2364L481.542 60.0096C479.397 58.1322 479.399 55.9445 479.399 55.9114H488.399H497.399C497.399 53.3971 496.782 49.4261 493.395 46.4632L487.469 53.2364ZM488.399 55.9114H479.399V116.391H488.399H497.399V55.9114H488.399ZM488.399 116.391H479.399C479.399 121.836 480.439 127.583 484.023 132.102L491.074 126.51L498.126 120.917C498.143 120.939 497.399 119.94 497.399 116.391H488.399ZM491.074 126.51L484.12 132.222C487.979 136.921 493.398 138.766 498.867 138.766V129.766V120.766C498.489 120.766 498.227 120.736 498.061 120.706C497.978 120.691 497.921 120.676 497.884 120.666C497.848 120.655 497.831 120.648 497.83 120.648C497.83 120.648 497.841 120.653 497.862 120.664C497.883 120.676 497.907 120.692 497.934 120.711C497.991 120.754 498.023 120.79 498.029 120.797L491.074 126.51ZM498.867 129.766V138.766C499.909 138.766 501.02 138.716 502.117 138.559L500.844 129.65L499.571 120.74C499.591 120.738 499.543 120.745 499.414 120.753C499.288 120.76 499.108 120.766 498.867 120.766V129.766ZM500.844 129.65L502.117 138.559C502.242 138.542 502.36 138.534 502.472 138.534V129.534V120.534C501.499 120.534 500.531 120.603 499.571 120.74L500.844 129.65ZM502.472 129.534L503.466 138.479C502.976 138.533 501.973 138.577 500.727 138.194C499.366 137.775 498.001 136.927 496.957 135.621L503.984 129.999L511.012 124.377C508.038 120.659 503.853 120.325 501.478 120.589L502.472 129.534ZM503.984 129.999L498.362 137.027C496.542 135.571 495.936 133.837 495.749 133.164C495.549 132.442 495.566 132.001 495.566 132.092H504.566H513.566C513.566 131.098 513.486 129.765 513.092 128.346C512.711 126.975 511.814 124.737 509.607 122.971L503.984 129.999ZM504.566 132.092H495.566C495.566 131.791 495.647 129.911 497.388 128.171L503.752 134.535L510.116 140.899C512.942 138.073 513.566 134.565 513.566 132.092H504.566ZM503.752 134.535L497.388 128.171C498.096 127.462 498.763 127.12 499.087 126.979C499.412 126.838 499.56 126.825 499.418 126.852L501.077 135.698L502.735 144.544C504.718 144.172 507.704 143.31 510.116 140.899L503.752 134.535ZM501.077 135.698L499.804 126.788C499.733 126.798 499.581 126.814 499.332 126.814V135.814V144.814C500.324 144.814 501.335 144.752 502.349 144.607L501.077 135.698ZM499.332 135.814L498.059 126.905C497.989 126.915 497.836 126.93 497.587 126.93V135.93V144.93C498.579 144.93 499.59 144.869 500.605 144.724L499.332 135.814ZM521.681 133.721L517.656 141.77L517.698 141.791L517.739 141.812L521.681 133.721ZM514.586 127.673L507.098 132.665L507.15 132.742L507.203 132.819L514.586 127.673ZM515.168 109.18L508.381 103.269L508.381 103.269L515.168 109.18ZM525.752 104.179L527.41 113.025L527.477 113.012L527.543 112.999L525.752 104.179ZM551.223 102.667H560.223V93.6667H551.223V102.667ZM551.223 107.901V116.901H560.223V107.901H551.223ZM529.939 108.831L531.187 117.744L531.26 117.734L531.334 117.722L529.939 108.831ZM521.797 111.971L515.433 105.607L515.433 105.607L521.797 111.971ZM523.077 126.975L529.109 120.296L529.109 120.296L523.077 126.975ZM541.57 127.905L546.34 135.537L546.371 135.518L546.401 135.498L541.57 127.905ZM546.687 87.1979L539.9 93.109L539.948 93.1642L539.997 93.2186L546.687 87.1979ZM528.078 84.7555L525.669 76.0838L525.637 76.0927L525.606 76.1018L528.078 84.7555ZM519.355 88.4773L523.665 96.3784L523.678 96.3708L523.692 96.3632L519.355 88.4773ZM517.029 88.9425L514.846 97.6738L514.961 97.7025L515.077 97.7282L517.029 88.9425ZM515.517 88.0121L508.028 93.0044L508.295 93.4044L508.603 93.7737L515.517 88.0121ZM514.819 86.3838L505.874 87.3777L505.941 87.9793L506.088 88.5666L514.819 86.3838ZM515.168 84.4066L507.118 80.3816L507.118 80.3817L515.168 84.4066ZM516.796 82.8946L520.821 90.9444L520.972 90.8692L521.119 90.7884L516.796 82.8946ZM526.682 78.9402L528.913 87.6594L528.982 87.6417L529.05 87.623L526.682 78.9402ZM547.85 79.8706L543.658 87.8349L543.701 87.8571L543.743 87.879L547.85 79.8706ZM554.48 86.849L546.272 90.5423L546.31 90.6268L546.35 90.7105L554.48 86.849ZM555.875 134.767L562.649 140.694L562.649 140.694L555.875 134.767ZM550.874 134.767L544.51 141.131L544.51 141.131L550.874 134.767ZM549.944 121.392V112.392H540.944V121.392H549.944ZM551.107 121.392L559.876 123.416L562.42 112.392H551.107V121.392ZM547.385 129.185L554.339 134.897L554.339 134.897L547.385 129.185ZM540.755 134.186L544.388 142.42L544.388 142.42L540.755 134.186ZM531.916 135.93V126.93C529.305 126.93 527.268 126.431 525.623 125.63L521.681 133.721L517.739 141.812C522.142 143.956 526.929 144.93 531.916 144.93V135.93ZM521.681 133.721L525.706 125.671C524.026 124.831 522.845 123.782 521.97 122.527L514.586 127.673L507.203 132.819C509.894 136.68 513.443 139.664 517.656 141.77L521.681 133.721ZM514.586 127.673L522.075 122.68C521.389 121.652 521.028 120.532 521.028 119.066H512.028H503.028C503.028 123.958 504.372 128.576 507.098 132.665L514.586 127.673ZM512.028 119.066H521.028C521.028 116.358 521.686 115.399 521.955 115.091L515.168 109.18L508.381 103.269C504.463 107.768 503.028 113.399 503.028 119.066H512.028ZM515.168 109.18L521.955 115.091C522.138 114.88 523.351 113.786 527.41 113.025L525.752 104.179L524.093 95.3329C518.228 96.4326 512.385 98.6723 508.381 103.269L515.168 109.18ZM525.752 104.179L527.543 112.999C531.645 112.166 537.778 111.667 546.222 111.667V102.667V93.6667C537.297 93.6667 529.784 94.1759 523.96 95.3588L525.752 104.179ZM546.222 102.667V111.667H551.223V102.667V93.6667H546.222V102.667ZM551.223 102.667H542.223V107.901H551.223H560.223V102.667H551.223ZM551.223 107.901V98.9005H546.338V107.901V116.901H551.223V107.901ZM546.338 107.901V98.9005C539.181 98.9005 533.177 99.213 528.544 99.9397L529.939 108.831L531.334 117.722C534.61 117.208 539.538 116.901 546.338 116.901V107.901ZM529.939 108.831L528.691 99.9179C524.221 100.544 519.09 101.951 515.433 105.607L521.797 111.971L528.161 118.335C527.809 118.688 527.686 118.632 528.235 118.42C528.773 118.213 529.712 117.951 531.187 117.744L529.939 108.831ZM521.797 111.971L515.433 105.607C511.766 109.275 510.471 113.99 510.471 118.484H519.471H528.471C528.471 117.91 528.552 117.723 528.529 117.79C528.516 117.826 528.481 117.91 528.412 118.021C528.342 118.133 528.256 118.241 528.161 118.335L521.797 111.971ZM519.471 118.484H510.471C510.471 124.298 512.593 129.634 517.044 133.654L523.077 126.975L529.109 120.296C528.753 119.974 528.471 119.649 528.471 118.484H519.471ZM523.077 126.975L517.044 133.654C521.511 137.688 527.128 139.231 532.847 139.231V130.231V121.231C530.346 121.231 529.45 120.604 529.109 120.296L523.077 126.975ZM532.847 130.231V139.231C537.626 139.231 542.237 138.102 546.34 135.537L541.57 127.905L536.8 120.273C535.94 120.81 534.735 121.231 532.847 121.231V130.231ZM541.57 127.905L546.401 135.498C550.335 132.995 553.405 129.593 555.577 125.477L547.618 121.276L539.658 117.075C538.884 118.542 537.922 119.559 536.738 120.312L541.57 127.905ZM547.618 121.276L555.577 125.477C557.818 121.23 558.827 116.577 558.827 111.739H549.827H540.827C540.827 114.034 540.363 115.739 539.658 117.075L547.618 121.276ZM549.827 111.739H558.827V98.4797H549.827H540.827V111.739H549.827ZM549.827 98.4797H558.827C558.827 92.4304 557.672 85.9495 553.377 81.1773L546.687 87.1979L539.997 93.2186C539.913 93.1247 540.131 93.3116 540.372 94.1764C540.618 95.0607 540.827 96.4464 540.827 98.4797H549.827ZM546.687 87.1979L553.474 81.2869C549.032 76.1867 542.698 74.5924 536.685 74.5924V83.5924V92.5924C538.219 92.5924 539.114 92.7982 539.564 92.9605C539.954 93.1009 539.97 93.1884 539.9 93.109L546.687 87.1979ZM536.685 83.5924V74.5924C532.938 74.5924 529.258 75.0868 525.669 76.0838L528.078 84.7555L530.487 93.4272C532.48 92.8734 534.538 92.5924 536.685 92.5924V83.5924ZM528.078 84.7555L525.606 76.1018C522.104 77.1022 518.568 78.6387 515.018 80.5914L519.355 88.4773L523.692 96.3632C526.345 94.9043 528.624 93.9595 530.551 93.4092L528.078 84.7555ZM519.355 88.4773L515.045 80.5762C515.414 80.3754 516.894 79.6931 518.981 80.1568L517.029 88.9425L515.077 97.7282C518.559 98.5022 521.591 97.5097 523.665 96.3784L519.355 88.4773ZM517.029 88.9425L519.212 80.2112C520.333 80.4917 521.526 81.1642 522.431 82.2504L515.517 88.0121L508.603 93.7737C510.283 95.7904 512.484 97.0832 514.846 97.6738L517.029 88.9425ZM515.517 88.0121L523.005 83.0198C523.343 83.5265 523.491 83.9621 523.55 84.201L514.819 86.3838L506.088 88.5666C506.458 90.0461 507.07 91.5672 508.028 93.0044L515.517 88.0121ZM514.819 86.3838L523.764 85.3899C523.876 86.3936 523.694 87.4798 523.218 88.4315L515.168 84.4066L507.118 80.3817C506.022 82.574 505.608 84.9783 505.874 87.3777L514.819 86.3838ZM515.168 84.4066L523.218 88.4315C522.459 89.9484 521.346 90.6822 520.821 90.9444L516.796 82.8946L512.771 74.8447C510.696 75.8823 508.497 77.6241 507.118 80.3816L515.168 84.4066ZM516.796 82.8946L521.119 90.7884C523.767 89.3383 526.363 88.3117 528.913 87.6594L526.682 78.9402L524.452 70.2209C520.334 71.2744 516.339 72.8841 512.473 75.0007L516.796 82.8946ZM526.682 78.9402L529.05 87.623C531.776 86.8798 534.273 86.5445 536.568 86.5445V77.5445V68.5445C532.505 68.5445 528.412 69.1396 524.314 70.2573L526.682 78.9402ZM536.568 77.5445V86.5445C540.201 86.5445 542.396 87.1707 543.658 87.8349L547.85 79.8706L552.042 71.9063C547.411 69.469 542.085 68.5445 536.568 68.5445V77.5445ZM547.85 79.8706L543.743 87.879C544.949 88.4973 545.714 89.301 546.272 90.5423L554.48 86.849L562.687 83.1557C560.454 78.194 556.799 74.3454 551.957 71.8622L547.85 79.8706ZM554.48 86.849L546.35 90.7105C547.061 92.2068 547.689 94.754 547.689 98.8286H556.689H565.689C565.689 93.1335 564.845 87.6942 562.609 82.9875L554.48 86.849ZM556.689 98.8286H547.689V132.092H556.689H565.689V98.8286H556.689ZM556.689 132.092H547.689C547.689 131.965 547.716 130.425 549.102 128.841L555.875 134.767L562.649 140.694C565.121 137.869 565.689 134.546 565.689 132.092H556.689ZM555.875 134.767L549.102 128.841C549.855 127.98 550.767 127.393 551.654 127.055C552.487 126.737 553.14 126.698 553.433 126.698V135.698V144.698C556.241 144.698 559.896 143.84 562.649 140.694L555.875 134.767ZM553.433 135.698V126.698C553.739 126.698 554.323 126.741 555.055 127.007C555.82 127.285 556.586 127.751 557.238 128.403L550.874 134.767L544.51 141.131C547.2 143.821 550.561 144.698 553.433 144.698V135.698ZM550.874 134.767L557.238 128.403C558.8 129.966 558.944 131.674 558.944 132.092H549.944H540.944C540.944 134.837 541.707 138.328 544.51 141.131L550.874 134.767ZM549.944 132.092H558.944V121.392H549.944H540.944V132.092H549.944ZM549.944 121.392V130.392H551.107V121.392V112.392H549.944V121.392ZM551.107 121.392L542.337 119.368C541.919 121.183 541.243 122.482 540.43 123.472L547.385 129.185L554.339 134.897C557.093 131.545 558.899 127.65 559.876 123.416L551.107 121.392ZM547.385 129.185L540.43 123.472C539.565 124.526 538.504 125.342 537.123 125.952L540.755 134.186L544.388 142.42C548.28 140.703 551.638 138.186 554.339 134.897L547.385 129.185ZM540.755 134.186L537.123 125.952C535.771 126.548 534.085 126.93 531.916 126.93V135.93V144.93C536.261 144.93 540.467 144.15 544.388 142.42L540.755 134.186ZM588.611 131.86L583.309 139.132L588.611 131.86ZM581.051 120.927L576.742 113.026L570.404 116.482L572.403 123.419L581.051 120.927ZM582.331 120.229H591.331V105.068L578.021 112.328L582.331 120.229ZM581.4 134.767L587.764 141.131L587.764 141.131L581.4 134.767ZM576.166 134.767L582.53 128.403L582.53 128.403L576.166 134.767ZM576.166 53.2364L582.093 60.0096L582.318 59.8122L582.53 59.6003L576.166 53.2364ZM581.4 53.2364L575.036 59.6003L575.248 59.8122L575.474 60.0096L581.4 53.2364ZM582.331 92.548V101.548H591.331V92.548H582.331ZM581.051 92.548L572.403 90.0562L569.092 101.548H581.051V92.548ZM615.362 81.15L620.244 73.5896L620.244 73.5896L615.362 81.15ZM623.968 91.2687L615.805 95.0587L615.833 95.1182L615.861 95.1774L623.968 91.2687ZM623.968 122.323L615.835 118.47L615.82 118.501L615.805 118.533L623.968 122.323ZM615.245 132.441L620.015 140.073L620.036 140.06L620.057 140.047L615.245 132.441ZM610.942 127.324L615.788 134.908L615.814 134.891L615.84 134.874L610.942 127.324ZM617.572 119.299L625.796 122.954L625.796 122.954L617.572 119.299ZM614.78 89.6404L607.91 95.4539L607.91 95.4539L614.78 89.6404ZM591.054 86.3838L595.899 93.9681L595.925 93.9513L595.951 93.9344L591.054 86.3838ZM584.54 94.2926L592.734 98.0169L592.749 97.9824L592.765 97.9479L584.54 94.2926ZM587.332 123.951L594.202 118.137L594.202 118.137L587.332 123.951ZM602.103 135.93V126.93C598.449 126.93 595.879 126.021 593.914 124.588L588.611 131.86L583.309 139.132C588.787 143.126 595.211 144.93 602.103 144.93V135.93ZM588.611 131.86L593.914 124.588C591.864 123.093 590.484 121.159 589.699 118.435L581.051 120.927L572.403 123.419C574.255 129.845 577.914 135.198 583.309 139.132L588.611 131.86ZM581.051 120.927L585.361 128.828L586.64 128.13L582.331 120.229L578.021 112.328L576.742 113.026L581.051 120.927ZM582.331 120.229H573.331V132.092H582.331H591.331V120.229H582.331ZM582.331 132.092H573.331C573.331 131.674 573.474 129.966 575.036 128.403L581.4 134.767L587.764 141.131C590.567 138.328 591.331 134.837 591.331 132.092H582.331ZM581.4 134.767L575.036 128.403C575.688 127.751 576.454 127.285 577.22 127.007C577.951 126.741 578.535 126.698 578.841 126.698V135.698V144.698C581.713 144.698 585.074 143.821 587.764 141.131L581.4 134.767ZM578.841 135.698V126.698C579.26 126.698 580.968 126.841 582.53 128.403L576.166 134.767L569.802 141.131C572.605 143.934 576.096 144.698 578.841 144.698V135.698ZM576.166 134.767L582.53 128.403C584.093 129.966 584.236 131.674 584.236 132.092H575.236H566.236C566.236 134.837 566.999 138.328 569.802 141.131L576.166 134.767ZM575.236 132.092H584.236V55.9114H575.236H566.236V132.092H575.236ZM575.236 55.9114H584.236C584.236 55.9445 584.238 58.1322 582.093 60.0096L576.166 53.2364L570.24 46.4632C566.854 49.4261 566.236 53.3971 566.236 55.9114H575.236ZM576.166 53.2364L582.53 59.6003C580.968 61.1627 579.26 61.3059 578.841 61.3059V52.3059V43.3059C576.096 43.3059 572.605 44.0695 569.802 46.8724L576.166 53.2364ZM578.841 52.3059V61.3059C578.535 61.3059 577.951 61.2626 577.22 60.9967C576.454 60.7183 575.688 60.2526 575.036 59.6003L581.4 53.2364L587.764 46.8724C585.074 44.1823 581.713 43.3059 578.841 43.3059V52.3059ZM581.4 53.2364L575.474 60.0096C573.328 58.1322 573.331 55.9445 573.331 55.9114H582.331H591.331C591.331 53.3971 590.713 49.4261 587.327 46.4632L581.4 53.2364ZM582.331 55.9114H573.331V92.548H582.331H591.331V55.9114H582.331ZM582.331 92.548V83.548H581.051V92.548V101.548H582.331V92.548ZM581.051 92.548L589.699 95.0399C590.484 92.3163 591.864 90.3815 593.914 88.8873L588.611 81.6152L583.309 74.3431C577.914 78.2766 574.255 83.6303 572.403 90.0562L581.051 92.548ZM588.611 81.6152L593.914 88.8873C595.879 87.4543 598.449 86.5445 602.103 86.5445V77.5445V68.5445C595.211 68.5445 588.787 70.3485 583.309 74.3431L588.611 81.6152ZM602.103 77.5445V86.5445C605.763 86.5445 608.427 87.3852 610.479 88.7103L615.362 81.15L620.244 73.5896C614.853 70.1074 608.678 68.5445 602.103 68.5445V77.5445ZM615.362 81.15L610.479 88.7103C612.658 90.1178 614.445 92.1286 615.805 95.0587L623.968 91.2687L632.131 87.4787C629.46 81.7245 625.509 76.9895 620.244 73.5896L615.362 81.15ZM623.968 91.2687L615.861 95.1774C617.244 98.0448 618.109 101.805 618.109 106.737H627.109H636.109C636.109 99.7292 634.88 93.1768 632.075 87.36L623.968 91.2687ZM627.109 106.737H618.109C618.109 111.664 617.246 115.491 615.835 118.47L623.968 122.323L632.102 126.175C634.878 120.315 636.109 113.752 636.109 106.737H627.109ZM623.968 122.323L615.805 118.533C614.468 121.414 612.677 123.416 610.434 124.836L615.245 132.441L620.057 140.047C625.413 136.659 629.437 131.916 632.131 126.113L623.968 122.323ZM615.245 132.441L610.475 124.809C608.386 126.115 605.712 126.93 602.103 126.93V135.93V144.93C608.574 144.93 614.661 143.42 620.015 140.073L615.245 132.441ZM601.056 129.999V138.999C606.314 138.999 611.346 137.746 615.788 134.908L610.942 127.324L606.097 119.739C604.956 120.468 603.397 120.999 601.056 120.999V129.999ZM610.942 127.324L615.84 134.874C620.338 131.956 623.622 127.844 625.796 122.954L617.572 119.299L609.347 115.643C608.419 117.731 607.283 118.969 606.044 119.773L610.942 127.324ZM617.572 119.299L625.796 122.954C627.98 118.04 628.898 112.543 628.898 106.737H619.898H610.898C610.898 110.702 610.265 113.578 609.347 115.643L617.572 119.299ZM619.898 106.737H628.898C628.898 98.0762 626.894 90.0234 621.651 83.8269L614.78 89.6404L607.91 95.4539C609.49 97.3213 610.898 100.667 610.898 106.737H619.898ZM614.78 89.6404L621.651 83.8269C616.368 77.5842 609.182 74.5924 601.056 74.5924V83.5924V92.5924C604.406 92.5924 606.369 93.6326 607.91 95.4539L614.78 89.6404ZM601.056 83.5924V74.5924C595.718 74.5924 590.642 75.923 586.156 78.8331L591.054 86.3838L595.951 93.9344C597.203 93.1227 598.795 92.5924 601.056 92.5924V83.5924ZM591.054 86.3838L586.208 78.7995C581.712 81.6717 578.471 85.7884 576.316 90.6374L584.54 94.2926L592.765 97.9479C593.711 95.8185 594.812 94.6626 595.899 93.9681L591.054 86.3838ZM584.54 94.2926L576.347 90.5684C574.129 95.4475 573.214 100.941 573.214 106.737H582.214H591.214C591.214 102.764 591.85 99.9611 592.734 98.0169L584.54 94.2926ZM582.214 106.737H573.214C573.214 115.449 575.205 123.553 580.461 129.764L587.332 123.951L594.202 118.137C592.635 116.285 591.214 112.914 591.214 106.737H582.214ZM587.332 123.951L580.461 129.764C585.744 136.007 592.93 138.999 601.056 138.999V129.999V120.999C597.706 120.999 595.743 119.959 594.202 118.137L587.332 123.951Z" fill="#2B2B2B" mask="url(#path-14-outside-3_0_1)"/>
<path d="M117.123 13.3751C118.057 18.7683 119.785 23.0003 122.837 26.2997C125.769 29.4685 129.766 31.6073 134.985 33.2011C131.273 34.4131 128.054 36.0009 125.24 38.3847C121.617 41.4536 118.81 45.7115 116.365 51.7944C114.659 46.7167 112.71 42.5144 109.82 39.0843C106.861 35.5728 103.023 32.9858 97.7557 30.9865C102.383 29.2226 106.11 27.0816 109.291 24.1358C112.348 21.3047 114.821 17.8061 117.123 13.3751Z" fill="white" stroke="#282828" stroke-width="4"/>
<path d="M96.4707 14.9284C94.0175 15.7875 92.0018 16.9912 90.4044 18.7342C88.8937 20.3828 87.8542 22.4111 87.1217 24.8453C86.33 23.3524 85.3851 22.0053 84.1864 20.8062C82.3528 18.9721 80.0272 17.5799 77.002 16.4587C79.3213 15.3349 81.3159 14.0688 82.9682 12.4255C84.7151 10.688 86.0072 8.60897 86.9619 6.01421C88.1186 8.09595 89.4456 9.85005 91.0947 11.3597C92.6319 12.7668 94.4002 13.9155 96.4707 14.9284Z" fill="white" stroke="#282828" stroke-width="4"/>
</svg>
